@startuml

title __HANDLERTHREADCVICENIE's Class Diagram__\n

  namespace sk.uniza.handlerthreadcvicenie {
    class sk.uniza.handlerthreadcvicenie.MainActivity {
        + onImageDownloaded()
        # onCreate()
    }
  }
  

  namespace sk.uniza.handlerthreadcvicenie {
    class sk.uniza.handlerthreadcvicenie.MyHandlerThread {
        {static} - TAG : String
        - mWorkerHandler : Handler
        + MyHandlerThread()
        + prepareHandler()
    }
  }
  

  namespace sk.uniza.handlerthreadcvicenie {
    interface sk.uniza.handlerthreadcvicenie.MyHandlerThread.Callback {
        {abstract} + onImageDownloaded()
    }
  }
  

  sk.uniza.handlerthreadcvicenie.MainActivity .up.|> sk.uniza.handlerthreadcvicenie.MyHandlerThread.Callback
  sk.uniza.handlerthreadcvicenie.MainActivity -up-|> androidx.appcompat.app.AppCompatActivity
  sk.uniza.handlerthreadcvicenie.MyHandlerThread -up-|> android.os.HandlerThread
  sk.uniza.handlerthreadcvicenie.MyHandlerThread +-down- sk.uniza.handlerthreadcvicenie.MyHandlerThread.Callback


right footer


PlantUML diagram generated by SketchIt! (https://bitbucket.org/pmesmeur/sketch.it)
For more information about this tool, please contact philippe.mesmeur@gmail.com
endfooter

@enduml
